<mxfile host="app.diagrams.net" agent="Mozilla/5.0 (Windows NT 10.0; Win64; x64) AppleWebKit/537.36 (KHTML, like Gecko) Chrome/133.0.0.0 Safari/537.36" version="26.0.10">
  <diagram name="Page-1" id="ZfeTRj6KhZ61jOfrh0ln">
    <mxGraphModel dx="1235" dy="726" grid="1" gridSize="10" guides="1" tooltips="1" connect="1" arrows="1" fold="1" page="1" pageScale="1" pageWidth="1169" pageHeight="827" math="0" shadow="0">
      <root>
        <mxCell id="0" />
        <mxCell id="1" parent="0" />
        <mxCell id="kcWeRtJJE4qR69ZITuoe-3" value="&lt;font style=&quot;font-size: 20px;&quot;&gt;&lt;b&gt;Card&lt;/b&gt;&lt;/font&gt;" style="shape=image;html=1;verticalAlign=top;verticalLabelPosition=bottom;labelBackgroundColor=#ffffff;imageAspect=0;aspect=fixed;image=https://cdn0.iconfinder.com/data/icons/credit-card-debit-card-payment-PNG/80/Visa-Electron-Curved.png" vertex="1" parent="1">
          <mxGeometry x="91.46000000000001" y="76" width="124" height="124" as="geometry" />
        </mxCell>
        <mxCell id="kcWeRtJJE4qR69ZITuoe-4" value="&lt;b&gt;&lt;font style=&quot;font-size: 20px;&quot;&gt;Stripe Account&lt;/font&gt;&lt;/b&gt;" style="shape=image;html=1;verticalAlign=top;verticalLabelPosition=bottom;labelBackgroundColor=#ffffff;imageAspect=0;aspect=fixed;image=https://cdn0.iconfinder.com/data/icons/phosphor-fill-vol-4/256/stripe-logo-fill-128.png" vertex="1" parent="1">
          <mxGeometry x="470" y="44" width="188" height="188" as="geometry" />
        </mxCell>
        <mxCell id="kcWeRtJJE4qR69ZITuoe-8" value="&lt;font style=&quot;font-size: 20px;&quot;&gt;&lt;b&gt;Admin CU&lt;/b&gt;&lt;/font&gt;" style="image;aspect=fixed;html=1;points=[];align=center;fontSize=12;image=img/lib/azure2/app_services/App_Service_Domains.svg;" vertex="1" parent="1">
          <mxGeometry x="70" y="430" width="166.91" height="135" as="geometry" />
        </mxCell>
      </root>
    </mxGraphModel>
  </diagram>
</mxfile>
